<svg width="33" height="42" viewBox="0 0 33 42" fill="none" xmlns="http://www.w3.org/2000/svg">
<path d="M32.1917 11.3715V38.1128C32.1917 40.1681 30.3508 42 28.2866 42H3.92659C1.86234 42 0.0214844 40.1681 0.0214844 38.1128V3.88723C0.0214844 1.83191 1.86234 0 3.92659 0H20.716C20.9406 0 21.1546 0.0882002 21.3136 0.2457L31.9437 10.7793C32.1027 10.9368 32.1917 11.1489 32.1917 11.3715Z" fill="#9655FF"/>
<path d="M31.7888 11.1426H23.0724C21.964 11.1426 21.0654 10.2522 21.0654 9.15389V0.293989C21.0654 0.184789 21.1968 0.130189 21.2752 0.207889L31.9414 10.7772C32.0771 10.9116 31.9817 11.1426 31.7888 11.1426Z" fill="white" fill-opacity="0.65"/>
<path d="M13.6973 23.7812V25H8.92773V23.7812H13.6973ZM13.5859 19.5859L9.50781 25H8.48828V24.0449L12.543 18.6602H13.5859V19.5859ZM13.0176 18.6602V19.8848H8.57031V18.6602H13.0176ZM16.4395 18.6602V25H14.8867V18.6602H16.4395ZM14.7812 17.002C14.7812 16.7715 14.8594 16.5801 15.0156 16.4277C15.1758 16.2754 15.3906 16.1992 15.6602 16.1992C15.9297 16.1992 16.1426 16.2754 16.2988 16.4277C16.459 16.5801 16.5391 16.7715 16.5391 17.002C16.5391 17.2285 16.459 17.418 16.2988 17.5703C16.1426 17.7227 15.9297 17.7988 15.6602 17.7988C15.3906 17.7988 15.1758 17.7227 15.0156 17.5703C14.8594 17.418 14.7812 17.2285 14.7812 17.002ZM19.4629 19.8789V27.4375H17.9102V18.6602H19.3457L19.4629 19.8789ZM23.5352 21.7656V21.8887C23.5352 22.3496 23.4805 22.7773 23.3711 23.1719C23.2656 23.5625 23.1094 23.9043 22.9023 24.1973C22.6953 24.4863 22.4375 24.7129 22.1289 24.877C21.8242 25.0371 21.4727 25.1172 21.0742 25.1172C20.6836 25.1172 20.3438 25.043 20.0547 24.8945C19.7656 24.7422 19.5215 24.5273 19.3223 24.25C19.123 23.9727 18.9629 23.6504 18.8418 23.2832C18.7246 22.9121 18.6367 22.5078 18.5781 22.0703V21.6777C18.6367 21.2129 18.7246 20.791 18.8418 20.4121C18.9629 20.0293 19.123 19.6992 19.3223 19.4219C19.5215 19.1406 19.7637 18.9238 20.0488 18.7715C20.3379 18.6191 20.6758 18.543 21.0625 18.543C21.4648 18.543 21.8184 18.6191 22.123 18.7715C22.4316 18.9238 22.6914 19.1426 22.9023 19.4277C23.1133 19.7129 23.2715 20.0527 23.377 20.4473C23.4824 20.8418 23.5352 21.2812 23.5352 21.7656ZM21.9824 21.8887V21.7656C21.9824 21.4844 21.957 21.2246 21.9062 20.9863C21.8555 20.7441 21.7773 20.5332 21.6719 20.3535C21.5664 20.1699 21.4297 20.0273 21.2617 19.9258C21.0938 19.8242 20.8906 19.7734 20.6523 19.7734C20.4141 19.7734 20.209 19.8125 20.0371 19.8906C19.8652 19.9688 19.7246 20.0801 19.6152 20.2246C19.5059 20.3691 19.4199 20.541 19.3574 20.7402C19.2988 20.9355 19.2598 21.1523 19.2402 21.3906V22.3633C19.2754 22.6523 19.3438 22.9121 19.4453 23.1426C19.5469 23.373 19.6953 23.5566 19.8906 23.6934C20.0898 23.8301 20.3477 23.8984 20.6641 23.8984C20.9023 23.8984 21.1055 23.8457 21.2734 23.7402C21.4414 23.6348 21.5781 23.4902 21.6836 23.3066C21.7891 23.1191 21.8652 22.9043 21.9121 22.6621C21.959 22.4199 21.9824 22.1621 21.9824 21.8887Z" fill="white"/>
</svg>
